<?xml version="1.0" encoding="UTF-8"?>
<svg id="Calque_1" data-name="Calque 1" xmlns="http://www.w3.org/2000/svg" viewBox="0 0 290.98 306.63">
  <defs>
    <style>
      .cls-1 {
        fill: #96b17d;
      }

      .cls-2 {
        fill: #345b42;
      }

      .cls-3 {
        fill: #4e8155;
      }
    </style>
  </defs>
  <path class="cls-1" d="M255.79,185.51c-12.81,12.81-28.4,21.17-44.82,25.09-18.83,4.49-38.77,3.11-56.92-4.11-11.6-4.61-22.46-11.6-31.83-20.98,17.58,17.58,46.09,17.58,63.67,0,9.38-9.38,16.37-20.24,20.98-31.83,7.22-18.16,8.59-38.09,4.1-56.93-3.91-16.43-12.27-32.01-25.09-44.82-9.38-9.38-20.24-16.37-31.83-20.98-33.57-13.34-73.23-6.69-100.7,19.98,55.92-54.83,145.49-54.83,201.4,0,.35,.33,.69,.67,1.04,1.01s.68,.68,1.01,1.04c26.66,27.46,33.32,67.14,19.98,100.69-4.61,11.59-11.6,22.46-20.98,31.84Z"/>
  <path class="cls-2" d="M254.75,256.43c-33.55,32.9-79.22,46.05-122.47,39.47-28.82-4.39-56.57-17.54-78.93-39.47-.35-.33-.69-.67-1.04-1.01s-.68-.68-1.01-1.04c-26.66-27.47-33.32-67.14-19.97-100.7,4.61-11.6,11.61-22.46,20.98-31.84,12.81-12.81,28.4-21.17,44.81-25.08,18.83-4.48,38.76-3.12,56.92,4.1,11.6,4.61,22.46,11.6,31.84,20.98-17.58-17.58-46.09-17.58-63.67,0-9.38,9.38-16.37,20.24-20.98,31.83-7.22,18.15-8.59,38.09-4.1,56.92,3.91,16.43,12.27,32.01,25.09,44.82,1.18,1.18,2.38,2.32,3.61,3.43,8.51,7.68,18.09,13.53,28.22,17.56,33.56,13.35,73.23,6.69,100.7-19.97Z"/>
  <path class="cls-3" d="M185.89,185.51c17.58-17.58,17.58-46.09,0-63.67-9.38-9.38-20.24-16.38-31.84-20.98-18.15-7.22-38.09-8.58-56.92-4.1-16.42,3.91-32,12.27-44.81,25.08-9.38,9.38-16.38,20.24-20.98,31.84-13.35,33.56-6.69,73.23,19.97,100.7-54.83-55.91-54.83-145.49,0-201.4,.33-.35,.67-.69,1.01-1.04s.68-.68,1.04-1.01c27.47-26.66,67.14-33.32,100.7-19.98,11.59,4.61,22.45,11.61,31.83,20.98,12.81,12.81,21.18,28.39,25.09,44.82,4.49,18.83,3.11,38.77-4.1,56.93-4.61,11.59-11.61,22.45-20.98,31.83Z"/>
</svg>